{"title":"I Don't Luv U (2013) - WEBHD - 1CD - x264 - AAC-={SPARROW}=-","uid":11871025,"size":736194463,"categoryP":"video","categoryS":"other","magnet":"?xt=urn:btih:692488c73709f698924f2cf56fd200609b814e7b&amp;dn=I+Don%27t+Luv+U+%282013%29+-+WEBHD+-+1CD+-+x264+-+AAC-%3D%7BSPARROW%7D%3D-&amp;tr=udp%3A%2F%2Ftracker.openbittorrent.com%3A80&amp;tr=udp%3A%2F%2Fopen.demonii.com%3A1337&amp;tr=udp%3A%2F%2Ftracker.coppersurfer.tk%3A6969&amp;tr=udp%3A%2F%2Fexodus.desync.com%3A6969","seeders":1,"leechers":2,"uploader":"juggs99","files":3,"time":1430414938,"description":"I Don't Luv U (2013) - WEBHD - 1CD - x264 - AAC-={SPARROW}=-\n &lt;a href=&quot;\nhttp://imgsparrow.co/image/EK&quot; rel=&quot;nofollow&quot; target=&quot;_NEW&quot;&gt;\nhttp://imgsparrow.co/image/EK&lt;/a&gt;\n\nMedia Info : -\n\nSOURCE : Untouched M2TV (Thanks)\nSample Within Torrent\n\nFormat                      : MPEG-4\nFormat profile              : Base Media / Version 2\nCodec ID                    : mp42\nFile size                   : 688 MiB\nDuration                    : 2h 0mn\nOverall bit rate mode       : Variable\nOverall bit rate            : 796 Kbps\nWriting application         : HandBrake 0.10.0 2014112200\n\nVideo\nID                          : 1\nFormat                      : AVC\nFormat/Info                 : Advanced Video Codec\nFormat profile              : &lt;a class=&quot;__cf_email__&quot; href=&quot;/cdn-cgi/l/email-protection&quot; data-cfemail=&quot;286549414668641c0618&quot;&gt;[email&amp;#160;protected]&lt;/a&gt;&lt;script cf-hash='f9e31' type=&quot;text/javascript&quot;&gt;\n/* &lt;![CDATA[ */!function(){try{var t=&quot;currentScript&quot;in document?document.currentScript:function(){for(var t=document.getElementsByTagName(&quot;script&quot;),e=t.length;e--;)if(t[e].getAttribute(&quot;cf-hash&quot;))return t[e]}();if(t&amp;&amp;t.previousSibling){var e,r,n,i,c=t.previousSibling,a=c.getAttribute(&quot;data-cfemail&quot;);if(a){for(e=&quot;&quot;,r=parseInt(a.substr(0,2),16),n=2;a.length-n;n+=2)i=parseInt(a.substr(n,2),16)^r,e+=String.fromCharCode(i);e=document.createTextNode(e),c.parentNode.replaceChild(e,c)}}}catch(u){}}();/* ]]&gt; */&lt;/script&gt;\nFormat settings, CABAC      : Yes\nFormat settings, ReFrames   : 4 frames\nCodec ID                    : avc1\nCodec ID/Info               : Advanced Video Coding\nDuration                    : 2h 0mn\nBit rate                    : 678 Kbps\nWidth                       : 640 pixels\nHeight                      : 272 pixels\nDisplay aspect ratio        : 2.35:1\nFrame rate mode             : Constant\nFrame rate                  : 24.000 fps\nColor space                 : YUV\nChroma subsampling          : 4:2:0\nBit depth                   : 8 bits\nScan type                   : Progressive\nBits/(Pixel*Frame)          : 0.162\nStream size                 : 586 MiB (85%)\nWriting library             : x264 core 142 r2479 dd79a61\nColor primaries             : BT.601 NTSC\nTransfer characteristics    : BT.709\nMatrix coefficients         : BT.601\nColor range                 : Limited\n\nAudio\nID                          : 2\nFormat                      : AAC\nFormat/Info                 : Advanced Audio Codec\nFormat profile              : LC\nCodec ID                    : 40\nDuration                    : 2h 0mn\nBit rate mode               : Variable\nBit rate                    : 112 Kbps\nChannel(s)                  : 2 channels\nChannel positions           : Front: L R\nSampling rate               : 48.0 KHz\nCompression mode            : Lossy\nStream size                 : 96.8 MiB (14%)\n\nScreens : - \n &lt;a href=&quot;\nhttp://imgsparrow.co/image/Ec&quot; rel=&quot;nofollow&quot; target=&quot;_NEW&quot;&gt;\nhttp://imgsparrow.co/image/Ec&lt;/a&gt; &lt;a href=&quot;\nhttp://imgsparrow.co/image/Ed&quot; rel=&quot;nofollow&quot; target=&quot;_NEW&quot;&gt;\nhttp://imgsparrow.co/image/Ed&lt;/a&gt; &lt;a href=&quot;\nhttp://imgsparrow.co/image/Eo&quot; rel=&quot;nofollow&quot; target=&quot;_NEW&quot;&gt;\nhttp://imgsparrow.co/image/Eo&lt;/a&gt; &lt;a href=&quot;\nhttp://imgsparrow.co/image/EM&quot; rel=&quot;nofollow&quot; target=&quot;_NEW&quot;&gt;\nhttp://imgsparrow.co/image/EM&lt;/a&gt; &lt;a href=&quot;\nhttp://imgsparrow.co/image/Em&quot; rel=&quot;nofollow&quot; target=&quot;_NEW&quot;&gt;\nhttp://imgsparrow.co/image/Em&lt;/a&gt; &lt;a href=&quot;\nhttp://imgsparrow.co/image/EF&quot; rel=&quot;nofollow&quot; target=&quot;_NEW&quot;&gt;\nhttp://imgsparrow.co/image/EF&lt;/a&gt; &lt;a href=&quot;\nhttp://imgsparrow.co/image/EO&quot; rel=&quot;nofollow&quot; target=&quot;_NEW&quot;&gt;\nhttp://imgsparrow.co/image/EO&lt;/a&gt; &lt;a href=&quot;\nhttp://imgsparrow.co/image/Ep&quot; rel=&quot;nofollow&quot; target=&quot;_NEW&quot;&gt;\nhttp://imgsparrow.co/image/Ep&lt;/a&gt; &lt;a href=&quot;\nhttp://imgsparrow.co/image/E0&quot; rel=&quot;nofollow&quot; target=&quot;_NEW&quot;&gt;\nhttp://imgsparrow.co/image/E0&lt;/a&gt; &lt;a href=&quot;\nhttp://imgsparrow.co/image/EB&quot; rel=&quot;nofollow&quot; target=&quot;_NEW&quot;&gt;\nhttp://imgsparrow.co/image/EB&lt;/a&gt;\n &lt;a href=&quot;\nhttp://imgsparrow.co/image/N2&quot; rel=&quot;nofollow&quot; target=&quot;_NEW&quot;&gt;\nhttp://imgsparrow.co/image/N2&lt;/a&gt;","torrent":{"xt":"urn:btih:692488c73709f698924f2cf56fd200609b814e7b","amp;dn":"I+Don%27t+Luv+U+%282013%29+-+WEBHD+-+1CD+-+x264+-+AAC-%3D%7BSPARROW%7D%3D-","amp;tr":["udp%3A%2F%2Ftracker.openbittorrent.com%3A80","udp%3A%2F%2Fopen.demonii.com%3A1337","udp%3A%2F%2Ftracker.coppersurfer.tk%3A6969","udp%3A%2F%2Fexodus.desync.com%3A6969"],"infoHash":"692488c73709f698924f2cf56fd200609b814e7b","infoHashBuffer":{"type":"Buffer","data":[105,36,136,199,55,9,246,152,146,79,44,245,111,210,0,96,155,129,78,123]},"announce":[],"urlList":[]}}